<svg width="28" height="20" viewBox="0 0 28 20" fill="none" xmlns="http://www.w3.org/2000/svg">
<path id="Vector" d="M12.6139 16.6736C12.7207 16.6737 12.8264 16.6949 12.925 16.7359C13.0236 16.7769 13.1131 16.8369 13.1885 16.9125C13.2639 16.9882 13.3237 17.0779 13.3644 17.1766C13.4051 17.2753 13.426 17.3811 13.4259 17.4878C13.4257 17.5946 13.4045 17.7003 13.3635 17.7989C13.3225 17.8975 13.2625 17.987 13.1869 18.0624C13.1113 18.1378 13.0216 18.1976 12.9229 18.2383C12.8242 18.279 12.7184 18.2999 12.6116 18.2998C12.396 18.2995 12.1893 18.2135 12.037 18.0608C11.8847 17.9081 11.7994 17.7012 11.7997 17.4855C11.8 17.2699 11.8859 17.0632 12.0386 16.9109C12.1913 16.7586 12.3983 16.6733 12.6139 16.6736ZM25.3645 11.6458C25.2577 11.6457 25.152 11.6246 25.0534 11.5836C24.9547 11.5427 24.8651 11.4828 24.7897 11.4072C24.7142 11.3316 24.6544 11.242 24.6136 11.1433C24.5728 11.0446 24.5519 10.9389 24.5519 10.8321C24.552 10.7253 24.5731 10.6196 24.6141 10.521C24.655 10.4223 24.715 10.3327 24.7905 10.2573C24.8661 10.1818 24.9557 10.122 25.0544 10.0812C25.1531 10.0404 25.2588 10.0195 25.3656 10.0196C25.5813 10.0197 25.788 10.1055 25.9404 10.2581C26.0928 10.4107 26.1783 10.6176 26.1781 10.8332C26.178 11.0489 26.0922 11.2556 25.9396 11.408C25.787 11.5604 25.5801 11.6459 25.3645 11.6458ZM25.3645 8.31933C24.6978 8.31994 24.0586 8.58506 23.5871 9.05648C23.1157 9.52791 22.8506 10.1671 22.85 10.8338C22.85 11.1033 22.8951 11.3716 22.983 11.633L14.6773 16.0548C14.447 15.7204 14.1389 15.447 13.7794 15.2582C13.4199 15.0694 13.02 14.9709 12.6139 14.971C11.6551 14.971 10.7819 15.5204 10.3585 16.3775L2.8972 12.4427C2.10838 12.0286 1.51851 10.7309 1.58097 9.54881C1.61335 8.93234 1.82617 8.4535 2.15118 8.26844C2.35706 8.15278 2.60457 8.16203 2.86828 8.29967L2.91686 8.32627C4.89467 9.36722 11.3648 12.7758 11.6377 12.9018C12.0576 13.0973 12.2912 13.176 13.0083 12.8359L26.3835 5.88003C26.5801 5.806 26.8091 5.61747 26.8091 5.33179C26.8091 4.93623 26.3985 4.78008 26.3985 4.78008C25.6374 4.41575 24.4681 3.86867 23.3277 3.33431C20.8895 2.19273 18.1264 0.899635 16.9131 0.263496C15.8652 -0.28474 15.022 0.177907 14.8716 0.270436L14.5802 0.415013C9.11864 3.11571 1.80882 6.73592 1.39244 6.98922C0.648734 7.44262 0.187244 8.34593 0.1271 9.46669C0.034571 11.2444 0.940202 13.0985 2.23677 13.7774L10.1272 17.8464C10.2141 18.4441 10.5132 18.9906 10.9698 19.386C11.4263 19.7814 12.0099 19.9993 12.6139 20C13.2736 19.9989 13.9065 19.7389 14.3765 19.2761C14.8465 18.8132 15.116 18.1844 15.1273 17.5248L23.8181 12.8139C24.2576 13.1586 24.8047 13.3471 25.3645 13.3471C26.0312 13.3465 26.6704 13.0814 27.1418 12.61C27.6132 12.1386 27.8783 11.4994 27.879 10.8327C27.8783 10.166 27.6132 9.52675 27.1418 9.05532C26.6704 8.5839 26.0312 8.31879 25.3645 8.31817" fill="white"/>
</svg>
