<svg width="162" height="40" viewBox="0 0 162 40" fill="none" xmlns="http://www.w3.org/2000/svg">
<path fill-rule="evenodd" clip-rule="evenodd" d="M28.0859 0.174529C28.5701 -0.0581765 29.1338 -0.0581763 29.618 0.174529L56.6989 13.1895C58.3945 14.0044 57.8141 16.552 55.9328 16.552H47.1145C46.8196 16.552 46.6011 16.8249 46.6011 17.1198V24.5255C46.6011 28.6766 49.9662 32.0417 54.1173 32.0417C55.094 32.0417 55.8858 32.8335 55.8858 33.8102V38.2315C55.8858 39.2082 55.094 40 54.1173 40H2.83029C1.85356 40 1.06177 39.2082 1.06177 38.2315V33.8102C1.06177 32.8335 1.85356 32.0417 2.83029 32.0417C6.85928 32.0417 10.1254 28.7755 10.1254 24.7465V17.1198C10.1254 16.8249 9.90689 16.552 9.61203 16.552H1.77107C-0.11016 16.552 -0.690568 14.0044 1.00501 13.1895L28.0859 0.174529ZM36.1005 32.0417C38.8476 32.0417 41.0745 29.8148 41.0745 27.0677V17.1198C41.0745 16.8249 40.8559 16.552 40.5611 16.552H31.64C31.3451 16.552 31.1266 16.8249 31.1266 17.1198V27.0677C31.1266 29.8148 33.3535 32.0417 36.1005 32.0417ZM15.652 17.1198C15.652 16.8249 15.8706 16.552 16.1654 16.552H25.0866C25.3814 16.552 25.6 16.8249 25.6 17.1198L25.6 27.0677C25.6 29.8148 23.373 32.0417 20.626 32.0417C17.879 32.0417 15.652 29.8148 15.652 27.0677L15.652 17.1198Z" fill="url(#paint0_linear_23_292)"/>
<path d="M78.4319 17H74.8319V0.92H82.2239C86.0639 0.92 88.1999 2.696 88.1999 5.816C88.1999 8.432 86.9039 9.992 84.1439 10.232V10.472C85.5359 10.904 86.2079 11.744 86.8319 12.968L88.8719 17H84.6719L82.7759 13.28C82.0559 11.888 81.5759 11.288 79.8719 11.288H78.4319V17ZM78.4319 4.16V8.312H82.3919C84.0719 8.312 84.6239 7.808 84.6239 6.224C84.6239 4.688 84.0719 4.16 82.3919 4.16H78.4319ZM93.261 17.24C91.125 17.24 89.469 16.112 89.469 13.928C89.469 12.056 90.813 10.904 93.309 10.52L97.437 9.896V9.512C97.437 8.096 96.669 7.832 95.253 7.832C93.789 7.832 93.213 8.24 93.213 9.464V9.728H89.781V9.464C89.781 6.584 92.013 4.688 95.421 4.688C98.973 4.688 100.845 6.632 100.845 9.848V17H97.509V15.368H97.365C96.717 16.256 95.493 17.24 93.261 17.24ZM92.901 13.64C92.901 14.288 93.405 14.504 94.461 14.504C95.925 14.504 97.437 14.12 97.437 12.248L93.981 12.776C93.237 12.896 92.901 13.136 92.901 13.64ZM106.556 17H102.98V4.928H106.316V7.04H106.46C107.108 5.672 108.404 4.688 110.516 4.688C113.66 4.688 115.004 6.776 115.004 9.344V17H111.404V10.064C111.404 8.384 110.852 7.784 109.028 7.784C107.3 7.784 106.556 8.336 106.556 10.16V17ZM121.842 17.24C118.434 17.24 116.61 14.768 116.61 10.976C116.61 7.16 118.554 4.688 121.842 4.688C123.69 4.688 124.794 5.504 125.346 6.512H125.49V0.92H129.066V17H125.73V15.224H125.61C124.986 16.52 123.618 17.24 121.842 17.24ZM120.186 10.976C120.186 13.16 120.762 14.168 122.85 14.168C124.554 14.168 125.49 13.568 125.49 11.936V9.992C125.49 8.36 124.554 7.76 122.85 7.76C120.762 7.76 120.186 8.768 120.186 10.976ZM134.915 17H131.339V0.92H134.915V17ZM142.627 17.24C138.475 17.24 136.579 14.816 136.579 11C136.579 7.136 138.883 4.688 142.651 4.688C146.275 4.688 148.411 6.848 148.411 9.992C148.411 10.664 148.315 11.36 148.243 11.768H139.963C140.035 13.448 140.707 14.12 142.675 14.12C144.115 14.12 144.739 13.808 144.739 13.064V12.92H148.291V13.16C148.291 15.728 146.083 17.24 142.627 17.24ZM142.531 7.64C140.803 7.64 140.131 8.312 139.987 9.584H144.955C145.027 8.336 144.211 7.64 142.531 7.64ZM78.4319 39H74.8319V22.92H86.9039V26.16H78.4319V29.832H86.5439V33.048H78.4319V39ZM91.9028 25.56H88.3748L88.3268 22.92H91.9028V25.56ZM91.9748 39H88.3748V26.928H91.9748V39ZM97.5557 39H93.9797V26.928H97.3157V29.04H97.4597C98.1077 27.672 99.4037 26.688 101.516 26.688C104.66 26.688 106.004 28.776 106.004 31.344V39H102.404V32.064C102.404 30.384 101.852 29.784 100.028 29.784C98.2997 29.784 97.5557 30.336 97.5557 32.16V39ZM111.402 39.24C109.266 39.24 107.61 38.112 107.61 35.928C107.61 34.056 108.954 32.904 111.45 32.52L115.578 31.896V31.512C115.578 30.096 114.81 29.832 113.394 29.832C111.93 29.832 111.354 30.24 111.354 31.464V31.728H107.922V31.464C107.922 28.584 110.154 26.688 113.562 26.688C117.114 26.688 118.986 28.632 118.986 31.848V39H115.65V37.368H115.506C114.858 38.256 113.634 39.24 111.402 39.24ZM111.042 35.64C111.042 36.288 111.546 36.504 112.602 36.504C114.066 36.504 115.578 36.12 115.578 34.248L112.122 34.776C111.378 34.896 111.042 35.136 111.042 35.64ZM124.696 39H121.12V26.928H124.456V29.04H124.6C125.248 27.672 126.544 26.688 128.656 26.688C131.8 26.688 133.144 28.776 133.144 31.344V39H129.544V32.064C129.544 30.384 128.992 29.784 127.168 29.784C125.44 29.784 124.696 30.336 124.696 32.16V39ZM140.871 39.24C136.887 39.24 134.751 36.816 134.751 33C134.751 29.136 137.031 26.688 141.063 26.688C144.279 26.688 146.631 28.656 146.631 31.632V31.92H143.031V31.728C143.031 30.36 142.263 29.904 140.775 29.904C139.047 29.904 138.303 30.72 138.303 32.976C138.303 35.208 139.047 36.024 140.775 36.024C142.263 36.024 143.031 35.568 143.031 34.2V34.008H146.631V34.296C146.631 37.272 144.207 39.24 140.871 39.24ZM154.018 39.24C149.866 39.24 147.97 36.816 147.97 33C147.97 29.136 150.274 26.688 154.042 26.688C157.666 26.688 159.802 28.848 159.802 31.992C159.802 32.664 159.706 33.36 159.634 33.768H151.354C151.426 35.448 152.098 36.12 154.066 36.12C155.506 36.12 156.13 35.808 156.13 35.064V34.92H159.682V35.16C159.682 37.728 157.474 39.24 154.018 39.24ZM153.922 29.64C152.194 29.64 151.522 30.312 151.378 31.584H156.346C156.418 30.336 155.602 29.64 153.922 29.64Z" fill="white"/>
<defs>
<linearGradient id="paint0_linear_23_292" x1="28.852" y1="-1.33573e-07" x2="53.5007" y2="40.0401" gradientUnits="userSpaceOnUse">
<stop stop-color="#42F4FF"/>
<stop offset="0.869792" stop-color="#9665FF"/>
</linearGradient>
</defs>
</svg>
