<svg width="83" height="58" viewBox="0 0 83 58" fill="none" xmlns="http://www.w3.org/2000/svg">
<path fill-rule="evenodd" clip-rule="evenodd" d="M40.3871 1.20814C41.0736 0.87821 41.8729 0.87821 42.5594 1.20814L80.9549 19.6609C83.3589 20.8162 82.536 24.4283 79.8687 24.4283H67.366C66.948 24.4283 66.6381 24.8152 66.6381 25.2333V35.7331C66.6381 41.6185 71.4092 46.3896 77.2946 46.3896C78.6795 46.3896 79.8021 47.5122 79.8021 48.897V55.1656C79.8021 56.5504 78.6795 57.673 77.2946 57.673H4.57952C3.19471 57.673 2.0721 56.5504 2.0721 55.1656V48.897C2.0721 47.5122 3.19471 46.3896 4.57952 46.3896C10.2919 46.3896 14.9226 41.7589 14.9226 36.0465L14.9226 25.2333C14.9226 24.8152 14.6128 24.4283 14.1947 24.4283H3.07774C0.410525 24.4283 -0.412382 20.8162 1.99162 19.6609L40.3871 1.20814ZM51.7503 46.3896C55.6451 46.3896 58.8024 43.2323 58.8024 39.3375V25.2333C58.8024 24.8152 58.4926 24.4283 58.0745 24.4283H45.4261C45.008 24.4283 44.6982 24.8152 44.6982 25.2333V39.3375C44.6982 43.2323 47.8555 46.3896 51.7503 46.3896ZM22.7583 25.2333C22.7583 24.8152 23.0681 24.4283 23.4862 24.4283H36.1346C36.5527 24.4283 36.8625 24.8152 36.8625 25.2333L36.8625 39.3375C36.8625 43.2323 33.7052 46.3896 29.8104 46.3896C25.9156 46.3896 22.7583 43.2323 22.7583 39.3375L22.7583 25.2333Z" fill="url(#paint0_linear_2_24)"/>
<defs>
<linearGradient id="paint0_linear_2_24" x1="41.4732" y1="0.960693" x2="76.4204" y2="57.7299" gradientUnits="userSpaceOnUse">
<stop stop-color="#42F4FF"/>
<stop offset="0.869792" stop-color="#9665FF"/>
</linearGradient>
</defs>
</svg>
